PathFileType	4	(X/Y/Z)	C:/Users/beibeiliu/ov580/test_trc/User3\sequence.38_training_dense_right.trc
DataRate	CameraRate	NumFrames	NumMarkers	Units	OrigDataRate	OrigDataStartFrame	OrigNumFrames
120	120	20	19	mm	120	1	89
Frame#	Time	ThumbCMC			ThumbMCP			ThumbIP			ThumbTip			IndexMCP			IndexPIP			IndexTip			MiddleMCP			MiddlePIP			MiddleTip			RingMCP			RingPIP			RingTip			PinkyMCP			PinkyPIP			PinkyTip			BackHand1			BackHand2			BackHand3	
		X0	Y0	Z0	X1	Y1	Z1	X2	Y2	Z2	X3	Y3	Z3	X4	Y4	Z4	X5	Y5	Z5	X6	Y6	Z6	X7	Y7	Z7	X8	Y8	Z8	X9	Y9	Z9	X10	Y10	Z10	X11	Y11	Z11	X12	Y12	Z12	X13	Y13	Z13	X14	Y14	Z14	X15	Y15	Z15	X16	Y16	Z16	X17	Y17	Z17	X18	Y18	Z18	
0	0	85.6526	22.3161	-21.6039	62.227	16.6254	-48.2076	47.7809	13.9953	-74.8262	40.495	9.84604	-96.1554	111.128	59.9349	-85.8817	109.816	61.527	-118.281	103.565	59.4564	-140.719	131.552	57.7544	-92.3129	124.795	64.1965	-122.61	116.41	53.1329	-154.883	141.254	44.0665	-90.5716	139.364	49.3284	-118.793	134.429	43.2573	-147.431	149.283	25.4138	-82.5193	148.634	30.8932	-105.702	147.172	32.8418	-127.207	146.68	32.312	-39.8428	147.898	23.6853	-9.89562	118.461	42.5006	-19.8103	
1	0.00833333	68.7922	9.57925	-22.8424	53.1314	-5.76177	-41.6806	36.51	-15.2978	-69.2091	26.0502	-25.9063	-85.2658	81.1087	39.3317	-89.7531	75.4808	39.2364	-120.859	73.8249	29.9924	-145.311	98.1755	41.2566	-96.457	90.0471	40.0073	-131.192	83.0871	24.9672	-159.355	111.868	31.8879	-96.3817	114.344	30.2173	-121.118	103.305	21.9559	-149.38	126.71	14.8706	-84.1362	123.262	17.8566	-109.061	115.176	17.7152	-130.122	125.743	28.3073	-44.3006	131.543	25.1101	-14.4782	97.2667	37.8124	-25.8555	
2	0.0166667	59.7606	-1.51926	-13.7853	46.2612	-21.0456	-38.3541	28.7725	-35.4488	-60.1897	22.9458	-46.9722	-77.8481	63.6028	22.1565	-89.6938	55.1071	19.7537	-115.402	54.9644	10.8496	-139.717	78.6151	25.7295	-102.441	69.3971	20.1298	-130.431	62.9973	2.09488	-158.542	97.6934	17.5424	-96.7973	91.8617	15.2987	-120.481	85.4452	2.98649	-147.199	111.301	5.84408	-85.5262	107.633	3.32183	-106.609	100.069	2.94177	-125.766	112.599	22.2913	-47.8179	122.496	23.7695	-20.4389	86.06	30.1162	-26.0536	
3	0.025	57.016	-0.798717	-14.7675	42.9439	-21.6997	-32.7275	27.4757	-36.6757	-58.1967	19.0205	-50.7089	-74.1446	60.0661	21.9313	-86.5594	53.1948	16.569	-117.998	53.581	7.43814	-139.657	81.3234	22.9982	-100.09	70.9276	16.1944	-130.71	62.8824	-1.43706	-155.045	93.9878	16.5093	-96.5807	89.6354	11.5792	-123.447	81.0043	-1.17375	-145.504	109.735	2.81101	-83.033	105.028	0.247972	-102.634	96.4945	-1.31632	-128.047	109.021	23.342	-46.4103	120.408	21.3606	-16.7907	80.7801	30.1163	-27.9311	
4	0.0333333	57.2943	3.03799	-14.6249	44.7299	-17.9508	-32.8311	27.6678	-32.3386	-55.4509	19.6017	-46.2984	-73.615	66.3294	24.4888	-88.8088	58.1899	21.4431	-113.943	58.1382	9.79047	-137.233	82.3214	25.6188	-93.9698	73.6576	18.137	-128.226	64.434	2.95301	-151.831	98.6937	15.1586	-89.6679	90.9669	12.3602	-120.958	84.4722	-0.222583	-145.153	115.214	0.963184	-79.2752	106.37	1.05836	-104.577	99.6529	-2.5074	-125.991	113.747	21.7843	-40.9361	126.406	21.585	-14.7375	90.4057	30.3108	-23.3688	
5	0.0416667	58.8041	4.03728	-14.5019	47.0072	-15.7577	-32.8669	30.4981	-29.1524	-51.0302	20.3097	-41.6465	-69.7463	66.4995	26.0371	-85.9471	65.3956	19.7597	-114.46	56.0411	12.4587	-138.942	87.9577	25.3143	-93.006	80.7317	20.1024	-124.228	67.7994	4.69585	-148.74	99.7355	16.4608	-90.758	98.0962	12.823	-117.139	86.8172	1.40922	-138.921	116.824	1.34804	-80.6819	109.297	1.19873	-98.578	103.854	-0.853607	-125.942	119.092	19.1566	-42.1699	124.597	19.9419	-14.4448	91.5881	30.7899	-25.214	
6	0.05	60.3973	5.03917	-12.3158	42.2006	-12.9494	-29.5043	23.5465	-26.1028	-51.4428	14.398	-38.9829	-67.1765	67.816	26.6004	-84.6682	60.5189	22.4931	-113.516	60.8055	11.3139	-135.666	85.3688	27.3607	-92.1328	78.2767	21.0246	-122.203	67.2907	3.58435	-148.453	103.644	16.1408	-89.9961	98.8385	12.2992	-115.814	89.7535	0.547656	-138.329	115.206	1.01357	-75.2228	111.192	-0.455423	-100.732	103.577	-1.26077	-124.328	116.357	21.4026	-36.8448	122.318	20.2896	-9.87693	89.316	31.6354	-22.3546	
7	0.0583333	58.4916	8.75698	-5.77819	40.7926	-8.69936	-27.8491	22.8514	-20.9232	-48.6424	11.5275	-32.7334	-67.1056	65.855	31.2946	-83.0938	62.1675	23.0307	-112.606	56.8995	14.0686	-136.077	86.2903	28.504	-92.157	77.1268	22.7503	-121.371	67.0331	2.88218	-149.588	102.893	16.6237	-88.9559	98.223	12.6382	-115.038	86.0344	3.70279	-135.68	114.963	2.32686	-72.3108	109.261	1.85052	-94.2051	105.194	1.20369	-120.046	114.816	24.6457	-38.8724	122.959	22.1654	-6.07045	87.7745	35.6209	-16.8536	
8	0.0666667	59.9219	10.9936	-8.62874	39.7607	-5.89518	-24.7591	23.6052	-17.0899	-44.5567	10.4688	-29.2401	-62.0165	67.4133	31.4567	-81.7267	61.1995	26.7803	-109.049	58.076	16.7608	-129.198	87.0049	29.7662	-88.8042	76.7549	22.3804	-120.92	65.4977	8.51523	-141.919	100.602	19.1129	-81.9247	95.5906	15.6468	-109.149	85.7628	3.61086	-136.211	114.633	3.72202	-72.2896	106.117	2.86199	-93.9361	105.559	-0.541868	-115.757	118.835	23.7855	-35.8229	125.078	21.4871	-7.43257	91.0263	34.9945	-14.4426	
9	0.075	57.1527	11.8613	-1.65114	38.2085	-7.00975	-23.2035	21.0624	-17.6597	-42.2551	8.53068	-29.3435	-61.4865	68.5839	30.3695	-79.6904	58.9147	27.1508	-103.908	55.2718	14.0185	-129.586	82.7576	30.661	-89.1241	75.3092	21.6181	-118.855	63.3793	7.9014	-141.061	100.554	17.9317	-80.5752	93.8509	15.2789	-107.1	84.3342	3.92861	-132.376	115.271	2.31768	-71.6493	106.53	2.07288	-92.1951	100.16	2.04465	-113.235	112.71	22.3883	-30.7633	123.417	20.3748	-6.80396	92.4716	35.4182	-12.4597	
10	0.0833333	58.5466	11.8789	-4.73449	35.2796	-6.03669	-24.4562	17.6244	-19.0347	-42.9222	8.7469	-30.6051	-62.0873	65.9256	31.5043	-75.727	57.9043	25.194	-107.221	58.0859	14.0076	-127.002	84.3486	28.372	-88.0921	78.5103	22.1661	-115.632	64.7816	5.33152	-140.63	100.608	17.5282	-83.8483	94.7078	14.4915	-107.716	84.8368	3.19683	-131.778	114.66	1.22758	-71.2797	105.585	1.73376	-91.1158	98.7148	1.446	-115.761	112.796	22.5034	-28.6453	122.705	22.3215	-2.05841	89.9	33.5879	-11.5778	
11	0.0916667	57.1378	10.8543	-0.693109	40.8766	-6.39345	-24.1803	18.5926	-19.1577	-47.2364	6.43591	-30.7145	-63.9306	63.917	31.1831	-78.6359	59.9955	24.3249	-106.867	55.0352	12.8258	-129.634	82.0755	29.321	-84.7658	76.0521	22.3453	-117.146	61.3187	6.92834	-141.484	99.6755	18.1441	-83.0737	94.8904	13.6926	-107.905	82.0731	2.00661	-133.091	108.91	4.09604	-71.9857	105.017	2.0961	-94.5921	100.335	-0.309609	-115.537	113.619	22.3209	-34.3874	120.994	21.577	-3.83011	85.137	35.3598	-15.2286	
12	0.1	54.394	12.0157	-2.1606	39.3088	-6.17249	-24.9664	20.5909	-18.2872	-43.0398	7.93691	-28.8048	-60.6613	63.2101	32.3837	-81.6501	59.3991	24.0312	-107.017	51.9612	16.0016	-126.39	80.6177	30.4007	-90.2837	75.716	19.7257	-119.489	62.7232	4.70169	-141.804	97.3849	18.6261	-84.6055	93.8278	12.214	-111.824	79.927	3.13477	-133.256	111.058	3.89618	-73.2992	103.395	2.40848	-93.0283	96.8684	0.299204	-114.752	112.578	25.0534	-33.3575	119.961	21.2557	-5.25671	86.683	37.466	-12.3676	
13	0.108333	57.4939	11.8331	-6.36943	37.5034	-6.47378	-25.8919	20.7217	-17.2035	-45.7742	7.39544	-28.7198	-59.5907	65.6219	30.0037	-79.1902	59.9937	23.6272	-107.377	52.2262	13.2776	-132.05	85.3406	28.1243	-87.5705	76.0726	21.7723	-116.98	61.8437	2.86606	-144.545	99.0327	17.2714	-87.0869	88.7951	14.5792	-109.022	82.5015	2.65847	-131.407	112.963	1.93603	-71.9044	103.609	0.354064	-96.0065	96.5872	-0.274006	-112.669	111.969	23.8469	-31.1372	119.836	21.8876	-7.2058	85.8126	38.0123	-13.0305	
14	0.116667	55.2379	11.622	-6.98454	34.5065	-6.33125	-23.9682	18.9205	-17.2942	-45.7938	4.31984	-28.5776	-65.3134	63.363	30.9788	-84.0499	58.9041	21.4144	-110.209	50.9888	13.6702	-130.428	80.2808	28.424	-89.6396	76.0996	20.5554	-117.25	60.5331	2.59256	-144.132	99.6379	16.0457	-86.4618	90.4006	12.0454	-114	78.8949	-0.195342	-135.798	110.992	1.21746	-72.2134	107.596	-0.584433	-94.8186	96.5961	-2.22198	-118.01	114.292	21.6487	-34.2162	118.434	22.7096	-5.8232	85.1446	35.5866	-17.928	
15	0.125	53.6723	12.5746	-7.18949	36.5807	-6.20929	-25.5292	17.3735	-16.694	-44.5628	5.86171	-27.4456	-61.5592	62.5598	30.718	-83.1665	55.5825	21.9044	-110.345	49.349	13.5297	-130.931	80.8414	27.0043	-92.1383	70.3933	19.649	-120.19	58.847	3.98424	-143.055	95.2141	17.662	-86.2853	94.7466	11.5725	-110.985	81.839	-1.62556	-135.414	111.337	1.17479	-73.2094	106.135	-1.32696	-94.9635	96.8869	-3.01569	-116.783	116.156	21.7847	-33.6655	122.143	21.543	-8.87041	86.3513	34.759	-14.7442	
16	0.133333	57.0783	10.4392	-6.46509	35.0077	-6.60685	-25.9589	18.6179	-17.1481	-48.657	4.39669	-28.0964	-63.4626	62.5468	29.5853	-83.7057	54.687	22.6808	-108.982	52.4983	10.1229	-132.582	80.7912	27.6583	-88.4474	71.5639	20.0687	-117.463	63.5289	1.46734	-142.344	96.7187	16.0033	-81.738	90.9177	10.6467	-112.551	79.91	-1.93922	-135.712	112.685	0.0190778	-71.005	102.656	-1.81583	-96.2717	95.2799	-3.94352	-117.579	114.234	22.2512	-32.4561	122.25	21.1063	-4.98068	87.0764	33.2778	-13.7885	
17	0.141667	53.9018	12.2116	-7.81573	37.3594	-7.00511	-29.6362	16.4166	-17.0291	-44.3949	4.41588	-26.7906	-60.2222	65.7564	28.7076	-84.2667	59.1286	21.6671	-109.805	53.8593	10.9841	-130.488	83.2417	25.9851	-92.0246	73.6826	18.0529	-120.941	59.8259	2.5969	-144.176	95.7969	17.2093	-84.9622	92.6995	8.92167	-114.604	80.3728	-0.916629	-133.536	109.221	1.75045	-73.6749	103.369	-1.90585	-96.771	100.953	-4.0629	-117.25	115.485	22.0907	-33.2381	122.01	21.3674	-3.22014	84.417	35.0577	-13.8986	
18	0.15	52.9032	13.3791	-4.03772	36.2968	-5.47866	-29.1253	15.8844	-16.3719	-43.5751	2.13923	-26.3765	-61.4167	63.7872	30.9398	-82.2931	60.1082	23.7249	-108.089	56.6853	10.4129	-133.648	81.6915	28.2559	-92.9522	76.9945	19.5471	-117.896	65.0148	-0.0756208	-145.405	101.828	14.9409	-83.3794	94.2976	12.2038	-110.588	81.8785	-1.49619	-134.859	111.84	0.72648	-71.008	103.279	-0.913956	-96.8241	100.918	-4.55397	-114.921	111.923	23.733	-34.724	118.282	20.7413	-5.53532	87.9451	35.419	-15.9142	
19	0.158333	54.1579	13.7747	-7.86225	39.5224	-4.89688	-30.9956	20.6163	-15.6991	-45.2209	4.2319	-26.1241	-61.9965	65.4163	30.1635	-80.4898	59.8453	24.0486	-109.376	53.3395	14.1809	-130.98	87.3458	25.7667	-93.7438	77.2721	18.4083	-120.672	63.7593	0.617891	-146.48	100.804	15.8477	-88.0841	92.273	12.3375	-112.808	81.5926	-3.03235	-137.083	111.523	0.152076	-70.4815	106.575	-1.3311	-94.7935	97.3976	-1.00557	-117.693	112.662	23.9352	-37.2099	121.608	21.5548	-9.19405	90.1691	35.1715	-14.8318	
